<svg width="24" height="24" fill="none" xmlns="http://www.w3.org/2000/svg"><path fill-rule="evenodd" clip-rule="evenodd" d="M2.4 0h19.2C22.92 0 24 1.08 24 2.4v19.2c0 1.32-1.08 2.4-2.4 2.4H2.4C1.08 24 0 22.92 0 21.6V2.4C0 1.08 1.08 0 2.4 0Zm1.2 20.4h3.6V9.6H3.6v10.8ZM5.4 7.56c-1.2 0-2.16-.96-2.16-2.16 0-1.2.96-2.16 2.16-2.16 1.2 0 2.16.96 2.16 2.16 0 1.2-.96 2.16-2.16 2.16ZM16.8 20.4h3.6v-6.84c0-2.28-1.92-4.2-4.2-4.2-1.08 0-2.4.72-3 1.68V9.6H9.6v10.8h3.6v-6.36c0-.96.84-1.8 1.8-1.8.96 0 1.8.84 1.8 1.8v6.36Z" fill="#fff"/></svg>