<svg width="135" height="38" fill="none" xmlns="http://www.w3.org/2000/svg"><g fill="#36536B"><path fill-rule="evenodd" clip-rule="evenodd" d="M134.657 8.59V5.294h-1.216V8.59h1.216ZM50.544 33.934v-7.84h.064a5.36 5.36 0 0 0 2.128 1.84c.864.416 1.808.624 2.832.624 1.216 0 2.277-.235 3.184-.704a6.738 6.738 0 0 0 2.272-1.888 8.147 8.147 0 0 0 1.36-2.72 11.37 11.37 0 0 0 .448-3.2c0-1.173-.15-2.299-.448-3.376-.299-1.077-.757-2.021-1.376-2.832a6.937 6.937 0 0 0-2.336-1.952c-.939-.49-2.059-.736-3.36-.736-1.024 0-1.963.203-2.816.608-.853.406-1.557 1.056-2.112 1.952h-.064v-2.112H46v22.336h4.544Zm3.808-8.768c-.725 0-1.344-.15-1.856-.448a3.595 3.595 0 0 1-1.232-1.168 5.045 5.045 0 0 1-.672-1.68 9.19 9.19 0 0 1-.208-1.952c0-.683.064-1.344.192-1.984.128-.64.347-1.205.656-1.696.31-.49.715-.89 1.216-1.2.501-.31 1.125-.464 1.872-.464.725 0 1.339.155 1.84.464.501.31.912.715 1.232 1.216.32.502.55 1.072.688 1.712.139.64.208 1.29.208 1.952a9.93 9.93 0 0 1-.192 1.952c-.128.64-.347 1.2-.656 1.68-.31.48-.715.87-1.216 1.168-.501.299-1.125.448-1.872.448Zm18.89 2.944c-.982.299-1.984.448-3.008.448-.79 0-1.525-.096-2.208-.288a5.058 5.058 0 0 1-1.792-.896 4.17 4.17 0 0 1-1.2-1.536c-.288-.619-.432-1.355-.432-2.208 0-.938.165-1.712.496-2.32a4.148 4.148 0 0 1 1.28-1.456 5.734 5.734 0 0 1 1.792-.816 19.15 19.15 0 0 1 2.032-.432 34.71 34.71 0 0 1 2.016-.256c.661-.064 1.248-.16 1.76-.288.512-.128.917-.315 1.216-.56.299-.245.437-.602.416-1.072 0-.49-.08-.88-.24-1.168a1.765 1.765 0 0 0-.64-.672 2.517 2.517 0 0 0-.928-.32 7.598 7.598 0 0 0-1.136-.08c-.896 0-1.6.192-2.112.576-.512.384-.81 1.024-.896 1.92h-4.544c.064-1.066.33-1.952.8-2.656a5.449 5.449 0 0 1 1.792-1.696 7.809 7.809 0 0 1 2.448-.912 13.92 13.92 0 0 1 2.736-.272c.832 0 1.674.059 2.528.176a7.733 7.733 0 0 1 2.336.688c.704.341 1.28.816 1.728 1.424.448.608.672 1.413.672 2.416v8.608c0 .747.043 1.462.128 2.144.085.683.234 1.195.448 1.536h-4.608a6.538 6.538 0 0 1-.32-1.6 5.92 5.92 0 0 1-2.56 1.568Zm-1.312-2.56a5.72 5.72 0 0 1-1.056-.096 2.566 2.566 0 0 1-.896-.336 1.718 1.718 0 0 1-.608-.656c-.15-.277-.224-.619-.224-1.024 0-.426.075-.778.224-1.056.15-.277.346-.507.592-.688.245-.181.533-.325.864-.432.33-.107.667-.192 1.008-.256.362-.064.725-.117 1.088-.16.362-.043.71-.096 1.04-.16.33-.064.64-.144.928-.24.288-.096.528-.23.72-.4v1.696c0 .256-.027.598-.08 1.024a3.427 3.427 0 0 1-.432 1.264c-.235.416-.597.773-1.088 1.072-.49.299-1.184.448-2.08.448Zm17.61 7.52c-.875.576-2.091.864-3.648.864-.47 0-.934-.016-1.392-.048-.459-.032-.923-.07-1.392-.112V30.03c.426.043.864.085 1.312.128.448.043.896.053 1.344.032.597-.064 1.04-.299 1.328-.704.288-.405.432-.853.432-1.344 0-.363-.064-.704-.192-1.024l-5.792-15.52h4.832l3.744 11.328h.064l3.616-11.328H98.5L91.588 30.19c-.491 1.344-1.174 2.304-2.048 2.88Zm15.05-4.544c.789 0 1.514-.096 2.176-.288a6.592 6.592 0 0 0 1.776-.8c.522-.341.965-.73 1.328-1.168.362-.437.64-.901.832-1.392h.064v.864c0 .341.026.656.08.944.053.288.154.539.304.752.149.213.368.384.656.512.288.128.677.192 1.168.192.341 0 .672-.043.992-.128V26.99a5.84 5.84 0 0 1-.896.096c-.278 0-.491-.058-.64-.176a.956.956 0 0 1-.32-.464 2.332 2.332 0 0 1-.112-.64c-.011-.235-.016-.47-.016-.704v-9.568c0-1.259-.454-2.277-1.36-3.056-.907-.778-2.352-1.168-4.336-1.168-1.984 0-3.515.454-4.592 1.36-1.078.907-1.659 2.267-1.745 4.08h1.217c.085-1.472.581-2.57 1.488-3.296.906-.725 2.096-1.088 3.568-1.088.832 0 1.536.085 2.112.256.576.17 1.045.405 1.408.704.362.299.629.64.8 1.024.17.384.256.8.256 1.248 0 .576-.032 1.056-.096 1.44a1.64 1.64 0 0 1-.48.944c-.256.245-.635.438-1.136.576-.502.139-1.19.24-2.064.304l-1.888.16c-.662.064-1.35.17-2.064.32-.715.15-1.366.4-1.952.752a4.37 4.37 0 0 0-1.456 1.44c-.385.608-.577 1.392-.577 2.352 0 1.579.48 2.747 1.441 3.504.96.758 2.314 1.136 4.064 1.136Zm-3.136-1.936c.768.587 1.824.88 3.168.88 1.386 0 2.485-.25 3.296-.752.81-.501 1.429-1.077 1.856-1.728.426-.65.698-1.28.816-1.888.117-.608.176-1.018.176-1.232v-3.072c-.299.363-.752.608-1.36.736-.608.128-1.286.224-2.032.288l-2.048.192c-.598.064-1.195.155-1.792.272a5.207 5.207 0 0 0-1.616.592c-.48.277-.87.656-1.168 1.136-.299.48-.448 1.104-.448 1.872 0 1.216.384 2.117 1.152 2.704Zm15.657 7.44v-9.312h.064c.491 1.344 1.27 2.315 2.336 2.912 1.067.598 2.283.896 3.648.896 1.259 0 2.352-.213 3.28-.64a6.255 6.255 0 0 0 2.304-1.776c.608-.757 1.062-1.659 1.36-2.704.299-1.045.448-2.197.448-3.456 0-1.152-.149-2.25-.448-3.296-.298-1.045-.752-1.963-1.36-2.752a6.651 6.651 0 0 0-2.304-1.888c-.928-.47-2.021-.704-3.28-.704-.896 0-1.69.139-2.384.416a6.4 6.4 0 0 0-1.776 1.04c-.49.416-.885.87-1.184 1.36-.298.49-.512.939-.64 1.344h-.064v-3.776h-1.216V34.03h1.216Zm3.152-7.184c.779.416 1.744.624 2.896.624 1.067 0 1.99-.203 2.768-.608a5.48 5.48 0 0 0 1.92-1.632c.502-.683.875-1.477 1.12-2.384.246-.907.368-1.872.368-2.896 0-.938-.117-1.861-.352-2.768a7.615 7.615 0 0 0-1.088-2.432 5.589 5.589 0 0 0-1.904-1.728c-.778-.437-1.722-.656-2.832-.656-1.088 0-2.016.213-2.784.64a5.407 5.407 0 0 0-1.872 1.696 7.165 7.165 0 0 0-1.04 2.416c-.213.907-.32 1.85-.32 2.832 0 .982.096 1.925.288 2.832.192.907.518 1.707.976 2.4a5.016 5.016 0 0 0 1.856 1.664Zm13.178-15.152h1.216v16.448h-1.216V11.694Z"/><circle cx="19.142" cy="5" r="3" transform="rotate(45 19.142 5)"/><circle cx="26.213" cy="12.071" r="3" transform="rotate(45 26.213 12.071)"/><circle cx="33.284" cy="19.142" r="3" transform="rotate(45 33.284 19.142)"/><circle cx="12.071" cy="12.071" r="3" transform="rotate(45 12.071 12.071)"/><circle opacity=".5" cx="19.142" cy="19.142" r="3" transform="rotate(45 19.142 19.142)"/><circle opacity=".5" cx="26.213" cy="26.213" r="3" transform="rotate(45 26.213 26.213)"/><circle cx="5" cy="19.142" r="3" transform="rotate(45 5 19.142)"/><circle opacity=".5" cx="12.071" cy="26.213" r="3" transform="rotate(45 12.071 26.213)"/><circle opacity=".25" cx="19.142" cy="33.284" r="3" transform="rotate(45 19.142 33.284)"/></g></svg>